<svg xmlns="http://www.w3.org/2000/svg" version="1.1" xmlns:xlink="http://www.w3.org/1999/xlink" xmlns:svgjs="http://svgjs.dev/svgjs" viewBox="0 0 2.5901922761534593 2.488691362885552"><g transform="matrix(1,0,0,1,1.295577190282784,2.464621928226746)"><rect width="2.5901922761534593" height="2.5901922761534593" x="-1.295577190282784" y="-2.5153723848606995" fill="#ffffff"></rect><g><path d=" M -0.8731842697678113 -1.5939727386612106 Q -0.865642379922267 -1.588385530632358 -0.8614469735630681 -1.5870745562881414 Q -0.8572515672038693 -1.585763581943925 -0.8536200113687161 -1.5882398473711692 Q -0.849988455533563 -1.5907161127984133 -0.8444012475047102 -1.5982580026439577 L -0.837094898543903 -1.6081204739804387 Q -0.8203332744573449 -1.6307461435170716 -0.8201224118014021 -1.6561983302245105 Q -0.8199115491454593 -1.6816505169319493 -0.8364237501641303 -1.7024192737440216 Q -0.8370038955368644 -1.7028490589770104 -0.8361443250708871 -1.7040093497224786 Q -0.8357145398378985 -1.704589495095213 -0.834742199267112 -1.7049923378863892 Q -0.8337698586963255 -1.7053951806775653 -0.8334797860099584 -1.705180288061071 Q -0.8066966236080656 -1.6812952648508281 -0.7875518263078378 -1.6671123521622022 Q -0.7852312448169011 -1.6653932112302476 -0.7849681145723464 -1.6636258326702325 Q -0.7847049843277918 -1.6618584541102175 -0.7864241252597465 -1.6595378726192809 L -0.8878534402450717 -1.522623564654015 Q -0.8882832254780604 -1.5220434192812808 -0.8900236615962629 -1.5233327749802468 Q -0.8917640977144654 -1.524622130679213 -0.8913343124814768 -1.525202276051947 Q -0.8844577487536581 -1.534484602015694 -0.8827921692463258 -1.5397651190504884 Q -0.8811265897389934 -1.5450456360852827 -0.8841507343005973 -1.5497569787994696 Q -0.8871748788622013 -1.5544683215136563 -0.8958770594532139 -1.5609151000084864 L -1.030180713241176 -1.6604103814453628 Q -1.0388828938321886 -1.6668571599401927 -1.0441258208320467 -1.6682702567960943 Q -1.0493687478319047 -1.6696833536519962 -1.0541875368543387 -1.6665141727472086 Q -1.0590063258767728 -1.663344991842421 -1.065667996988097 -1.6543527385650414 Q -1.0660977822210858 -1.653772593192307 -1.0678382183392883 -1.655061948891273 Q -1.0695786544574908 -1.6563513045902392 -1.0691488692245021 -1.6569314499629733 L -1.057899273096924 -1.6715102643512005 Q -1.0474340673654505 -1.684423822691098 -1.0409872888706206 -1.6931260032821105 Q -1.0345405103757905 -1.7018281838731233 -1.0252355953897854 -1.715601312678998 L -1.0145661446349414 -1.7306099123002139 Q -1.0139214667854586 -1.731480130359315 -1.012181030667256 -1.730190774660349 Q -1.0104405945490536 -1.7289014189613832 -1.0110852723985364 -1.7280312009022818 Q -1.0177469435098607 -1.7190389476249022 -1.0193749329822568 -1.713505947938677 Q -1.0210029224546529 -1.7079729482524517 -1.0178713315848016 -1.7034066418814484 Q -1.0147397407149505 -1.6988403355104453 -1.006037560123938 -1.6923935570156152 L -0.8731842697678113 -1.5939727386612106 M -0.7599019404105849 -1.9690639146225388 Q -0.7738994507126054 -1.971808612528472 -0.7859622747633792 -1.961474700785087 Q -0.7865105849475053 -1.961004977524024 -0.7879197547306941 -1.9626499080764022 Q -0.789328924513883 -1.9642948386287804 -0.7887806143297569 -1.9647645618898435 L -0.7753863082801994 -1.9757637650632913 Q -0.7644986915207408 -1.9841401968393615 -0.7581931244032909 -1.9895420143415854 Q -0.7529841776540931 -1.9940043853216836 -0.7435843176008865 -2.003007714204943 L -0.731208044996518 -2.014085504301454 Q -0.730659734812392 -2.014555227562517 -0.729250565029203 -2.012910297010139 Q -0.7278413952460142 -2.0112653664577604 -0.7283897054301403 -2.0107956431966976 Q -0.739081754020599 -2.0016360396059696 -0.73783245549951 -1.9879702758803228 Q -0.7365831569784211 -1.974304512154676 -0.7239006289297213 -1.9595001371832719 L -0.6586090956419701 -1.883285021589746 Q -0.6421687815047666 -1.864094165145333 -0.6382199229405526 -1.842283234719516 Q -0.6342710643763385 -1.820472304293699 -0.6430672706077534 -1.7993892020448736 Q -0.651863476839168 -1.7783060997960485 -0.6721509536518332 -1.7609263391367191 Q -0.6924384304644983 -1.7435465784773896 -0.7146413963669731 -1.7378358081148606 Q -0.7368443622694479 -1.7321250377523314 -0.7583194999949309 -1.739159332185431 Q -0.7797946377204139 -1.7461936266185307 -0.7967046751186804 -1.7659327932470699 L -0.872564981780348 -1.8544848879834324 Q -0.8796108306962923 -1.8627095407453238 -0.8844067465300798 -1.8652559730662832 Q -0.8892026623638672 -1.8678024053872426 -0.8944696501667044 -1.865904764750883 Q -0.8997366379695417 -1.8640071241145233 -0.908235445823496 -1.8567264135680475 Q -0.9090579110996851 -1.856021828676453 -0.910467080882874 -1.8576667592288312 Q -0.9118762506660629 -1.8593116897812094 -0.9110537853898738 -1.860016274672804 L -0.896288703880001 -1.8721897859989092 Q -0.8832078463840382 -1.8824451108192313 -0.8758056588983361 -1.8887863748435811 Q -0.8675810061364447 -1.8958322237595255 -0.8554395951626077 -1.9071841689480995 L -0.8416925470979241 -1.919436267197268 Q -0.840870081821735 -1.9201408520888625 -0.8394609120385461 -1.9184959215364843 Q -0.8380517422553572 -1.916850990984106 -0.8388742075315463 -1.9161464060925115 Q -0.8473730153855006 -1.9088656955460357 -0.8499390944372258 -1.903815271350951 Q -0.852505173488951 -1.8987648471558662 -0.8506075328525914 -1.8934978593530292 Q -0.8487098922162317 -1.8882308715501919 -0.8416640433002873 -1.8800062187883007 L -0.7744936169682844 -1.8015978624582705 Q -0.7465450829350384 -1.7689734065027685 -0.7202726806677812 -1.7643850628901545 Q -0.6940002784005239 -1.7597967192775406 -0.6704229404831022 -1.7799948195032478 Q -0.6476680678418698 -1.7994883348373605 -0.6466432908567464 -1.8243716636215237 Q -0.6456185138716232 -1.8492549924056867 -0.6676955071415821 -1.8750255710596129 L -0.7332219020598647 -1.9515148417452015 Q -0.7459044301085646 -1.966319216716606 -0.7599019404105849 -1.9690639146225388 M -0.36379147252621624 -1.9574948126853677 Q -0.3628186042872459 -1.95555959089198 -0.3637862151839397 -1.955073156772495 Q -0.3731397871853135 -1.9503709602841381 -0.3784625233408424 -1.9480991819457816 L -0.3979768859812144 -1.9386930365216424 L -0.42426277245101773 -1.9250746336234825 Q -0.43022883009025037 -1.9216713472345117 -0.4411950869194472 -1.9161584272136796 Q -0.44216269781614104 -1.9156719930941943 -0.44313556605511145 -1.917607214887582 Q -0.44410843429408187 -1.9195424366809697 -0.44314082339738803 -1.920028870800455 Q -0.4324971035337557 -1.925379646114792 -0.43525356354417183 -1.9308627745293905 Q -0.43671286590262737 -1.933765607219472 -0.4417235797771447 -1.9364992854133565 L -0.5202858218364506 -1.982663297323231 L -0.5280802019761146 -1.929046805800208 Q -0.531741184775906 -1.9049836291408466 -0.5262282647550738 -1.8940173723116496 Q -0.5199046212017663 -1.8814384306546297 -0.5031326989924063 -1.889869955392373 Q -0.5024876250612771 -1.890194244805363 -0.5015147568223067 -1.8882590230119753 Q -0.5005418885833364 -1.8863238012185877 -0.5011869625144656 -1.8859995118055977 Q -0.5118306823780978 -1.8806487364912605 -0.5174759554991913 -1.878214813446409 L -0.5415058356574679 -1.8665386421313388 L -0.5565029283325098 -1.8585953039605063 Q -0.5605337641783547 -1.8561648858105058 -0.5698873361797285 -1.8514626893221489 Q -0.5708549470764224 -1.8509762552026638 -0.5718278153153927 -1.8529114769960515 Q -0.5728006835543631 -1.8548466987894392 -0.5718330726576693 -1.8553331329089242 Q -0.5618344267251663 -1.8603596188102713 -0.5526710385890957 -1.8782998504661814 Q -0.5435076504530252 -1.8962400821220917 -0.5387291791820233 -1.9261176863987437 L -0.5282063781907516 -1.987166547709157 L -0.6201863245983609 -2.041535099095536 Q -0.6358670450478933 -2.0510262815394475 -0.6469301462571673 -2.0529395977400164 Q -0.6579932474664414 -2.054852913940585 -0.6670242825022505 -2.0503128621587234 Q -0.6679918933989444 -2.049826428039238 -0.6689647616379147 -2.051761649832626 Q -0.6699376298768852 -2.0536968716260136 -0.6689700189801913 -2.054183305745499 L -0.6549387847544178 -2.060832991159222 Q -0.6455834603056185 -2.0647279690099545 -0.6410679427877138 -2.066997994900885 Q -0.6297791489929524 -2.0726730596282126 -0.6133315161965825 -2.081749658297085 L -0.5951090538658945 -2.0913144435328683 Q -0.5944639799347653 -2.0916387329458583 -0.5934911116957949 -2.0897035111524707 Q -0.5925182434568246 -2.087768289359083 -0.5931633173879538 -2.087443999946093 Q -0.6041295742171506 -2.0819310799252606 -0.6013731142067346 -2.076447951510662 Q -0.6000759565547741 -2.0738676557861453 -0.5947409532672666 -2.070488903661132 L -0.5192506983942394 -2.0264170009088636 L -0.5119322376895075 -2.0761577915028346 Q -0.5084333995962111 -2.1005435051277606 -0.5139463196170433 -2.1115097619569574 Q -0.5202699631703508 -2.1240887036139773 -0.5370418853797108 -2.115657178876234 Q -0.53768695931084 -2.115332889463244 -0.5386598275498105 -2.1172681112566316 Q -0.5396326957887808 -2.1192033330500193 -0.5389876218576516 -2.1195276224630093 L -0.5226986288729258 -2.127312320822198 Q -0.5094728608373511 -2.1331530351508716 -0.49850660400815416 -2.1386659551717035 Q -0.49173332773129724 -2.1420709940080997 -0.4836716560396074 -2.146931830308101 L -0.47028724819238865 -2.1540644449464583 Q -0.4693196372956948 -2.154550879065943 -0.4683467690567244 -2.1526156572725554 Q -0.467373900817754 -2.1506804354791678 -0.4683415117144478 -2.150194001359683 Q -0.47866269461251554 -2.1450053707518406 -0.48758374191255627 -2.126984942966396 Q -0.49650478921259694 -2.1089645151809506 -0.5016057974491633 -2.0789247661978036 L -0.5111679973334434 -2.0215912135573726 L -0.41304582900070225 -1.9638456624934058 Q -0.3989830507212695 -1.9559654124298917 -0.38784062960617344 -1.954698046384165 Q -0.3766982084910774 -1.953430680338438 -0.36573195166188044 -1.9589436003592704 Q -0.3647643407651866 -1.9594300344787554 -0.36379147252621624 -1.9574948126853677 M -0.2081848826218064 -2.2085762300244838 Q -0.21928785587484592 -2.2175309855316034 -0.2347775543078245 -2.2140137851598043 Q -0.2354816315093235 -2.213853912415632 -0.23596124974184152 -2.215966144020129 Q -0.23644086797435956 -2.218078375624626 -0.23573679077286055 -2.218238248368799 L -0.2187590015647976 -2.2217231556281933 Q -0.20522166199214342 -2.2240566605659753 -0.19712477417490465 -2.225895197123961 Q -0.19043604076066395 -2.2274139881936015 -0.17792252387785415 -2.2309957747902085 L -0.1618086846154629 -2.2350248865069293 Q -0.1611046074139639 -2.2351847592511023 -0.16062498918144585 -2.233072527646605 Q -0.16014537094892783 -2.230960296042108 -0.16084944815042684 -2.2308004232979353 Q -0.17457895357965783 -2.227682904786568 -0.17984577526147066 -2.2150111079774337 Q -0.18511259694328347 -2.2023393111682994 -0.18079603285062126 -2.183329226727826 L -0.15857372141061946 -2.0854624957194616 Q -0.15297817536457584 -2.0608197936669956 -0.15965474426723486 -2.039683720292595 Q -0.16633131316989383 -2.0185476469181944 -0.18394330750778068 -2.003998141773955 Q -0.20155530184566753 -1.989448636629716 -0.22760615830113146 -1.983533345095327 Q -0.25365701475659536 -1.977618053560938 -0.27596143341773505 -1.9829187611730033 Q -0.2982658520788747 -1.9882194687850683 -0.3139837025098529 -2.0044556018323614 Q -0.3297015529408311 -2.0206917348796543 -0.3354569717310474 -2.046038514133619 L -0.36127641991493437 -2.1597469821757116 Q -0.3636745110775245 -2.170308140198197 -0.36672983259085556 -2.1747970305622153 Q -0.36978515410418655 -2.1792859209262336 -0.3753293638615294 -2.180063055835104 Q -0.38087357361887214 -2.1808401907439743 -0.39178677024210706 -2.178362163209298 Q -0.3928428860443556 -2.178122354093039 -0.3933225042768736 -2.1802345856975363 Q -0.3938021225093916 -2.182346817302033 -0.3927460067071431 -2.182586626418292 L -0.3740080244953326 -2.1864712155381185 Q -0.3576543761166823 -2.189444211452591 -0.34814933389644553 -2.191602493498922 Q -0.3375881758739601 -2.194000584661512 -0.32155427298365524 -2.198381734978983 L -0.3036802407175164 -2.2028105285561357 Q -0.3026241249152679 -2.2030503376723947 -0.3021445066827499 -2.2009381060678974 Q -0.30166488845023187 -2.1988258744634006 -0.3027210042524804 -2.198586065347141 Q -0.31363420087571525 -2.196108037812465 -0.31825914235406516 -2.1928367288127157 Q -0.32288408383241507 -2.189565419812967 -0.3236612187412855 -2.184021210055624 Q -0.32443835365015594 -2.1784770002982814 -0.32204026248756584 -2.167915842275796 L -0.29917846007087334 -2.0672328024614357 Q -0.2896660317925992 -2.0253402089722434 -0.2685638443484508 -2.0090310182175792 Q -0.24746165690430252 -1.9927218274629148 -0.21718633723984446 -1.9995963554623397 Q -0.18796713337763493 -2.006231074345506 -0.1754581059327679 -2.0277660331714142 Q -0.1629490784879008 -2.049300991997322 -0.17046309746401653 -2.0823926204677763 L -0.19276534527610467 -2.1806113900768906 Q -0.1970819093687669 -2.199621474517364 -0.2081848826218064 -2.2085762300244838 M 0.15956560133937142 -2.0120125992756948 Q 0.15950471976168512 -2.0098474550695276 0.1587830050262961 -2.0098677489287566 L 0.09455039357667583 -2.0116739024001165 Q 0.08661153148739689 -2.0118971348516332 0.06579721111891373 -2.042276683463292 Q 0.04498289075043055 -2.0726562320749506 0.015811760079327053 -2.1269256115109587 Q 0.012914754208156687 -2.1266459295801794 0.0075018936927392504 -2.126798133524395 Q -0.0065715436473460925 -2.127193863779356 -0.012335114600843647 -2.1277170720208805 L -0.014689202271380472 -2.0439981627157575 Q -0.015003757089426348 -2.032811584317228 -0.013341527265555223 -2.0277088465214335 Q -0.011679297441684097 -2.0226061087256384 -0.006497600258185812 -2.020654691407757 Q -0.001315903074687541 -2.0187032740898765 0.010231532691536344 -2.018378572342216 Q 0.010953247426925328 -2.0183582784829874 0.010892365849239027 -2.0161931342768202 Q 0.010831484271552727 -2.0140279900706535 0.010109769536163743 -2.014048283929882 Q -0.0017985235977546338 -2.014383132607157 -0.008644666654335664 -2.0149367816375245 L -0.03605967966950299 -2.0160688056559124 L -0.06241241444081559 -2.016448674150068 Q -0.06963970872431989 -2.0162907553746607 -0.08190885922593276 -2.01663575098155 Q -0.08299143132901625 -2.016666191770393 -0.08293054975132995 -2.01883133597656 Q -0.08286966817364366 -2.0209964801827267 -0.08178709607056017 -2.0209660393938838 Q -0.07023966030433629 -2.0206413376462233 -0.06495649382469418 -2.0222984940052875 Q -0.059673327345052075 -2.023955650364351 -0.0575414813433238 -2.0291322740830426 Q -0.05540963534159552 -2.0343088978017336 -0.055105227453164034 -2.0451346188325683 L -0.05040719904170477 -2.2122115800751203 Q -0.050102791153273284 -2.223037301105955 -0.0517650209771444 -2.22814003890175 Q -0.05342725080101552 -2.2332427766975447 -0.05878430320355386 -2.23537969616408 Q -0.06414135560609219 -2.2375166156306157 -0.07532793400462157 -2.2378311704486613 Q -0.07604964874001056 -2.2378514643078904 -0.07598876716232426 -2.240016608514057 Q -0.07592788558463798 -2.2421817527202244 -0.07520617084924898 -2.2421614588609957 L -0.056090877291055066 -2.2412628142237385 Q -0.03951173223633701 -2.240074340726088 -0.029768583308585617 -2.2398003736264998 Q -0.019303719645445236 -2.2395061126676827 -0.006643270987294725 -2.2402335422342627 Q -0.0026636930130408826 -2.240482783376199 0.003661457851227179 -2.2406660694756417 Q 0.00998660871549524 -2.240849355575085 0.018647185540163147 -2.2406058292643394 Q 0.05184606336805678 -2.2396723117398163 0.069729438294547 -2.2270711699765244 Q 0.08761281322103723 -2.214470028213232 0.08700399744417425 -2.1928185861515623 Q 0.08653723868191265 -2.1762191472376156 0.07600706134266269 -2.1613472518236496 Q 0.06547688400341273 -2.1464753564096837 0.04897448228718643 -2.1375496766822737 Q 0.0765645585713339 -2.0912698939836165 0.09551085310806276 -2.065096013213324 Q 0.11445714764479159 -2.0389221324430307 0.12946381055934023 -2.026763023484348 Q 0.1444704734738889 -2.0146039145256656 0.1589047681816687 -2.0141980373410906 Q 0.15962648291705772 -2.0141777434818615 0.15956560133937142 -2.0120125992756948 M 0.008848285965796704 -2.1361499842956087 Q 0.021839151202798557 -2.135784694829491 0.029528772150141186 -2.1395410403522286 Q 0.037218393097483815 -2.1432973858749658 0.040920505190169876 -2.152944138971381 Q 0.04462261728285591 -2.1625908920677954 0.045119816833960685 -2.1802729030848256 Q 0.04595186506234006 -2.2098632072357742 0.03760584305571801 -2.221293311945049 Q 0.029259821049095996 -2.2327234166543235 0.013021239502843673 -2.233180028486971 Q 0.0007520890012308046 -2.2335250240938596 -0.0044521180907078906 -2.2282542205930436 Q -0.009656325182646572 -2.2229834170922276 -0.010011467719149972 -2.21035340922292 L -0.012040853642026547 -2.1381819356840213 Q -0.003420864535816165 -2.1364949799024977 0.008848285965796704 -2.1361499842956087 M 0.24808794536744605 -1.997514970957409 Q 0.24876327310364366 -1.9921909805884541 0.2534868228234721 -1.9893020199978078 Q 0.2582103725433006 -1.9864130594071612 0.26949182106403957 -1.9839275769039204 Q 0.27054945686285886 -1.9836945629192415 0.27008342889350123 -1.981579291321603 Q 0.26961740092414355 -1.9794640197239644 0.2685597651253243 -1.9796970337086433 Q 0.2569257713383122 -1.9822601875401105 0.25030508260734974 -1.9840884880426828 L 0.2235893136988209 -1.9903440542541528 L 0.19742329266638575 -1.9957391872766241 Q 0.1902947160126976 -1.9969400685748766 0.17830817695941245 -1.9995808937345698 Q 0.17760308642686626 -1.9997362363910225 0.17806911439622392 -2.001851507988661 Q 0.17853514236558157 -2.0039667795862997 0.17924023289812777 -2.003811436929847 Q 0.19052168141886675 -2.001325954426606 0.19619821705409451 -2.0019236108345777 Q 0.20187475268932228 -2.0025212672425488 0.2049399859131053 -2.0072059812982643 Q 0.2080052191368883 -2.0118906953539795 0.21033535898367658 -2.0224670533421722 L 0.24629718395244232 -2.1856955116266144 Q 0.2486273237992306 -2.196271869614807 0.24777572342989646 -2.201634695647875 Q 0.24692412306056233 -2.2069975216809428 0.24206313637171045 -2.210101590568839 Q 0.23720214968285855 -2.2132056594567353 0.22592070116211957 -2.215691141959976 Q 0.2252156106295734 -2.2158464846164287 0.22568163859893103 -2.217961756214067 Q 0.2261476665682887 -2.2200770278117057 0.22685275710083488 -2.2199216851552532 L 0.24581253015135562 -2.215374888164761 Q 0.2618742697434654 -2.211096916533806 0.271745537199112 -2.2089221193434705 Q 0.28267444045357787 -2.206514308168456 0.2990468653585927 -2.2036465176025937 L 0.3171043452667467 -2.2000378251293267 Q 0.31816198106556604 -2.1998048111446478 0.31769595309620835 -2.1976895395470093 Q 0.31722992512685066 -2.1955742679493704 0.31617228932803143 -2.1958072819340493 Q 0.3052433860735655 -2.198215093109064 0.29948917911011147 -2.1972648914348194 Q 0.29373497214665745 -2.196314689760575 0.290846011556011 -2.191591140040747 Q 0.2879570509653645 -2.1868675903209183 0.2856269111185762 -2.1762912323327255 L 0.249820428806263 -2.0137678645808292 Q 0.24741261763124844 -2.0028389613263635 0.24808794536744605 -1.997514970957409 M 0.534808015700345 -1.8780142517726806 Q 0.5339471785632416 -1.8760266614166505 0.5322908532665499 -1.87674402569757 Q 0.525665552079783 -1.8796134828212478 0.5120393652999405 -1.8863018728996483 Q 0.49775064840142136 -1.8932772086904164 0.49145661227399284 -1.8960031929579104 Q 0.4831749857905343 -1.899590014362508 0.4709624979419862 -1.9040925070664516 Q 0.45941254021211486 -1.9083080540580273 0.452787239025348 -1.9111775111817053 Q 0.45146217878799466 -1.9117514026064408 0.45232301592509805 -1.913738992962471 Q 0.45318385306220144 -1.915726583318501 0.4545089132995548 -1.9151526918937654 Q 0.46312180484235166 -1.911422397632984 0.467720453733754 -1.9115944176132302 Q 0.47231910262515636 -1.9117664375934762 0.47432772261173095 -1.916404148424213 Q 0.4767667611668572 -1.9220356544329649 0.4758803742274462 -1.9381557139301764 L 0.47084074357395767 -2.020986228137662 L 0.41187556301173295 -2.0465243965383952 L 0.36583050537783884 -2.0047023550113323 Q 0.3573633467771074 -1.9969608154209113 0.35377652537251 -1.9886791889374527 Q 0.34861150254988965 -1.9767536468012725 0.35418930443933944 -1.9664697877818162 Q 0.35976710632878917 -1.95618592876236 0.3740115038803378 -1.9500165959464524 Q 0.37566782917702957 -1.9492992316655329 0.3748069920399262 -1.9473116413095028 Q 0.3739461549028228 -1.9453240509534728 0.3722898296061311 -1.9460414152343923 Q 0.36632705853804093 -1.9486239266457026 0.3553509922329051 -1.9541645338746316 Q 0.34304986569041596 -1.9602790325282964 0.3337744440289424 -1.9642962725014457 Q 0.3248302874268072 -1.9681700396184107 0.3119552694595824 -1.9729594780347222 Q 0.300405311729711 -1.977175025026298 0.2934487454836059 -1.9801879550061599 Q 0.2921236852462525 -1.9807618464308956 0.29298452238335587 -1.9827494367869256 Q 0.29384535952045926 -1.9847370271429556 0.29517041975781266 -1.9841631357182201 Q 0.3044458414192862 -1.9801458957450708 0.3123898153928295 -1.9812294596599678 Q 0.3203337893663728 -1.9823130235748647 0.33086027475122626 -1.9893593585578517 Q 0.3413867601360797 -1.9964056935408387 0.3583210773375426 -2.011888772721681 L 0.49864214761368164 -2.138768596234164 Q 0.49973509630091 -2.1394754456998113 0.5020539517162784 -2.1384711357065243 Q 0.5047040721909851 -2.1373233528570528 0.5046049186817718 -2.136186084822854 L 0.5168325382738796 -1.9373354615824159 Q 0.5182402425616649 -1.9087940924029572 0.5219855718094815 -1.8965500601085923 Q 0.5257309010572981 -1.8843060278142276 0.5340125275407567 -1.88071920640963 Q 0.5356688528374484 -1.8800018421287106 0.534808015700345 -1.8780142517726806 M 0.4201992487562805 -2.053934671069478 L 0.47022027271637 -2.03227026978571 L 0.4663877792463585 -2.0960879776558796 L 0.4201992487562805 -2.053934671069478 M 0.8847026161815287 -1.8851592147805418 Q 0.8833596262008354 -1.883459822562201 0.8827931621280551 -1.8839074858890987 Q 0.8714638806724492 -1.8928607524270535 0.8578988464368362 -1.889087071540088 Q 0.8443338122012234 -1.8853133906531223 0.8324707340384332 -1.8703020927244443 L 0.7178689223526108 -1.7252872900926879 Q 0.7171974273622642 -1.7244375939835175 0.7156990515350596 -1.7251616044326472 Q 0.7142006757078552 -1.725885614881777 0.7140818749619726 -1.726899742281455 L 0.7007721581766899 -1.9831226998713156 L 0.6137016410950789 -1.8729454377155474 Q 0.6018385629322887 -1.8579341397868696 0.6011308861659569 -1.8442296500628999 Q 0.6004232093996251 -1.8305251603389299 0.611469258818841 -1.821795725464424 Q 0.6120357228916213 -1.8213480621375262 0.6106927329109281 -1.8196486699191854 Q 0.6093497429302348 -1.8179492777008444 0.6087832788574545 -1.818396941027742 Q 0.6008527818385303 -1.8246642276043106 0.5968281329561269 -1.8283049345924338 L 0.5817574346545078 -1.840675076455063 L 0.5639732167348697 -1.8542694075525028 Q 0.5589344404527882 -1.8577913137947435 0.5498710152883034 -1.8649539270251074 Q 0.549021319179133 -1.865625422015454 0.5503643091598261 -1.867324814233795 Q 0.5517072991405194 -1.8690242064521359 0.5525569952496898 -1.8683527114617893 Q 0.5650192048508564 -1.8585041182700388 0.5791804033457203 -1.8615766039801873 Q 0.5933416018405842 -1.8646490896903356 0.6052046800033744 -1.8796603876190137 L 0.6998854736422471 -1.9994675390120469 Q 0.6985967563255315 -2.017050337215905 0.6949625309269227 -2.0261340137982207 Q 0.691328305528314 -2.035217690380536 0.6842475046185603 -2.040813481966758 Q 0.68368104054578 -2.0412611452936558 0.6850240305264732 -2.0429605375119966 Q 0.6863670205071665 -2.0446599297303374 0.6869334845799467 -2.0442122664034397 L 0.6986053984448841 -2.034528104502197 Q 0.7020635832545072 -2.0313350608409713 0.709144384164261 -2.02573926925475 L 0.7308938505933612 -2.0090112948690253 Q 0.7350829307662722 -2.0061608836171314 0.7407475714940752 -2.001684250348154 Q 0.7430134277851964 -1.999893597040563 0.7432510292769615 -1.997865342241207 Q 0.7434886307687266 -1.995837087441851 0.7434111395077927 -1.9899167543342902 Q 0.7430779558671012 -1.979597279218686 0.7432699268142413 -1.9757646012834227 L 0.7519593776891332 -1.7853092632104433 L 0.8242570049831188 -1.8767932109644616 Q 0.8363439148093579 -1.8920877409295298 0.8370515915756896 -1.9057922306534996 Q 0.8377592683420214 -1.9194967203774693 0.8267132189228055 -1.9282261552519753 Q 0.8261467548500252 -1.928673818578873 0.8274897448307185 -1.930373210797214 Q 0.8288327348114117 -1.9320726030155548 0.829399198884192 -1.9316249396886571 L 0.8413543447855195 -1.9217169461239656 Q 0.8499701066231066 -1.9139878688208214 0.8562012114236899 -1.9090635722249463 Q 0.8618658521514928 -1.9045869389559686 0.872509868788436 -1.8970954631445895 L 0.8854791420894416 -1.8873062703257806 Q 0.8860456061622219 -1.8868586069988829 0.8847026161815287 -1.8851592147805418 M 0.8936457124215214 -1.7828042523310317 Q 0.8925667906327364 -1.7824312405702454 0.8916109997774428 -1.783973015226587 Q 0.8906552089221492 -1.7855147898829287 0.8915143350038198 -1.7861741770042718 Q 0.9038485322545524 -1.7938205038466204 0.9231323461854861 -1.8063456544456002 Q 0.9424161601164197 -1.8188708050445803 0.9515801716542397 -1.8259042676722412 Q 0.9530120484570241 -1.8270032462078132 0.9542209248461533 -1.8254281817247504 Q 0.9554298012352825 -1.8238531172416876 0.9539979244324981 -1.8227541387061157 Q 0.9476976665002469 -1.817918633149599 0.9602260218057677 -1.8015952375978568 Q 0.9782693265359356 -1.7763075694686223 1.0035458328540916 -1.7433744030045817 Q 1.0165137795738413 -1.726478256731726 1.0315930469645054 -1.708017074349201 L 1.0468255304088416 -1.6887633455384479 Q 1.0551777672791889 -1.6778810818372865 1.0604560689564753 -1.6739684915631132 Q 1.0657343706337616 -1.67005590128894 1.0711289795776868 -1.6719209600928715 Q 1.0724942767270287 -1.6725137675607722 1.0737031531161578 -1.6709387030777094 Q 1.074912029505287 -1.6693636385946466 1.0737665280630595 -1.668484455766189 Q 1.06451588012501 -1.6627497106344276 1.0448458213533558 -1.6492455077268262 Q 1.0251757625817017 -1.6357413048192249 1.0137207481594266 -1.6269494765346488 Q 1.012861622077756 -1.6262900894133057 1.011762643542184 -1.62772196621609 Q 1.010663665006612 -1.6291538430188743 1.0113029953811683 -1.6300996055007744 Q 1.0300569625373317 -1.6513195053569365 1.032070789927081 -1.6715230298636727 Q 1.03408461731683 -1.6917265543704092 1.0208968748899663 -1.7089090760038217 Q 1.0145227993836485 -1.717213961459971 1.0088550481591008 -1.7171870810463314 Q 1.003187296934553 -1.7171602006326916 0.9931641593150624 -1.7094673508836877 L 0.8611451180983427 -1.608141529903949 Q 0.8522674819210795 -1.6013278629834025 0.8495770011159697 -1.5965324709204598 Q 0.8468865203108598 -1.5917370788575167 0.8491911705290203 -1.585769719192478 Q 0.8514958207471807 -1.579802359527439 0.8596282619104135 -1.5692064711868348 Q 0.8602876490317567 -1.568347345105164 0.8585693968684155 -1.5670285708624776 Q 0.8568511447050742 -1.5657097966197913 0.856191757583731 -1.5665689227014619 Q 0.8482791121276125 -1.5768784356815093 0.843949777638767 -1.5831121139603181 L 0.8259931093088286 -1.6071010645936532 L 0.8079032816720053 -1.6300776730916458 Q 0.803001196462046 -1.6358717599562258 0.7948687552988132 -1.6464676482968301 Q 0.79420936817747 -1.6473267743785007 0.7959276203408112 -1.6486455486211873 Q 0.7976458725041525 -1.6499643228638736 0.7983052596254957 -1.649105196782203 Q 0.8062179050816142 -1.6387956838021553 0.8114962067589006 -1.6348830935279821 Q 0.8167745084361869 -1.6309705032538089 0.8223556232605053 -1.632296101163348 Q 0.8279367380848235 -1.6336216990728871 0.8365279989015297 -1.640215570286319 L 0.9691197908393633 -1.7419809826802866 Q 0.9788565530982971 -1.7494540367221763 0.98031489606095 -1.754668963452561 Q 0.9817732390236029 -1.7598838901829457 0.9756189592243997 -1.7679024002785382 Q 0.949463270077786 -1.8019810681848063 0.8936457124215214 -1.7828042523310317" fill="#262626" fill-rule="nonzero"></path></g><g clip-path="url(&quot;#SvgjsClipPath1003&quot;)"><g clip-path="url(&quot;#SvgjsClipPath1000&quot;)"><path d=" M 0.6736120883214345 -1.0047046693069484 L 0.3823863048491918 -1.5091231932713336 L 0.3823863048491918 -1.0047046693069484 L 0.6736120883214345 -1.0047046693069484 Z" fill="#bdbfc3" transform="matrix(1,0,0,1,0,0)" fill-rule="nonzero"></path></g><g clip-path="url(&quot;#SvgjsClipPath1000&quot;)"><path d=" M 0.3823863048491918 -1.0047046693069484 L 0.3823863048491918 -1.5091231932713336 L 0.09116052137694897 -1.0047046693069484 L 0.3823863048491918 -1.0047046693069484 Z" fill="#e8a941" transform="matrix(1,0,0,1,0,0)" fill-rule="nonzero"></path></g><g clip-path="url(&quot;#SvgjsClipPath1000&quot;)"><path d=" M -0.04251735540471824 -1.0058439325304764 L -0.35771178382571905 -1.5517767931390023 L -0.35771178382571905 -1.0058439325304764 L -0.04251735540471824 -1.0058439325304764 Z" fill="#bdbfc3" transform="matrix(1,0,0,1,0,0)" fill-rule="nonzero"></path></g><g clip-path="url(&quot;#SvgjsClipPath1000&quot;)"><path d=" M -0.35771178382571905 -1.0058439325304764 L -0.35771178382571905 -1.5517767931390023 L -0.6729062122467199 -1.0058439325304764 L -0.35771178382571905 -1.0058439325304764 Z" fill="#e8a941" transform="matrix(1,0,0,1,0,0)" fill-rule="nonzero"></path></g><g clip-path="url(&quot;#SvgjsClipPath1000&quot;)"><path d=" M 0.44466948791222705 -1.0084208992297097 L 0.01065950726797571 -1.7601503723416423 L 0.01065950726797571 -1.0084208992297097 L 0.44466948791222705 -1.0084208992297097 Z" fill="#bdbfc3" transform="matrix(1,0,0,1,0,0)" fill-rule="nonzero"></path></g><g clip-path="url(&quot;#SvgjsClipPath1000&quot;)"><path d=" M 0.01065950726797571 -1.0084208992297097 L 0.01065950726797571 -1.7601503723416423 L -0.4233530685089031 -1.0084208992297097 L 0.01065950726797571 -1.0084208992297097 Z" fill="#e8a941" transform="matrix(1,0,0,1,0,0)" fill-rule="nonzero"></path></g><g clip-path="url(&quot;#SvgjsClipPath1000&quot;)"><path d=" M 0.5510699256449125 -0.7924072495713375 L 0.673614683454062 -1.004657956919651 L 0.49576764935019235 -1.312697604686286 L 0.3824978955521796 -1.1165081731703523 L 0.18158791778659344 -1.4644921023414135 L 0.010667292665858641 -1.168449752712296 L -0.16025333245487605 -1.4644921023414135 L -0.3577221643562296 -1.122464002550755 L -0.48166050838641467 -1.3371333735080166 L -0.673614683454062 -1.004657956919651 L -0.5510699256449123 -0.7924072495713375 L -0.42852776296839024 -1.004657956919651 L -0.4257379953936918 -1.004657956919651 L -0.3214915177419364 -0.8240990092199117 L -0.48096241770958315 -0.8240990092199117 L -0.30110415581930283 -0.512571503201747 L -0.24212198145860836 -0.6147340893535185 L -0.35675158475349733 -0.6147340893535185 L -0.2358754972239115 -0.8240990092199117 L -0.2848949574271478 -0.8240990092199117 L -0.2538052685481828 -0.8779480112431611 L -0.13540493754535254 -0.6728702504776067 L -0.011269363435467916 -0.8878769886764599 L 0.08484137342867859 -0.7214096111447323 L -0.10419587256551655 -0.7214096111447323 L 0.018348885243633095 -0.5091589037964184 L 0.19812929315508465 -0.8205514629179465 L 0.3496253505580349 -0.5581576029386337 L 0.4721675132345573 -0.7704083102869477 L 0.3397093487878744 -0.7704083102869477 L 0.4517386291898815 -0.9644515671198343 L 0.5510699256449125 -0.7924072495713375 Z" fill="#262626" transform="matrix(1,0,0,1,0,0)" fill-rule="nonzero"></path></g><g clip-path="url(&quot;#SvgjsClipPath1000&quot;)"><path d=" M 0.06900068386964653 -0.5968510304165446 L -0.012079044815287321 -0.7372866325605512 L 0.15008300768720806 -0.7372866325605512 L 0.06900068386964653 -0.5968510304165446 Z" fill="#bdbfc3" transform="matrix(1,0,0,1,0,0)" fill-rule="nonzero"></path></g><g clip-path="url(&quot;#SvgjsClipPath1000&quot;)"><path d=" M 0.4699953872252338 -0.6519872182230964 L 0.3889130634076723 -0.7924228203671031 L 0.5510751159101679 -0.7924228203671031 L 0.4699953872252338 -0.6519872182230964 Z" fill="#bdbfc3" transform="matrix(1,0,0,1,0,0)" fill-rule="nonzero"></path></g><g clip-path="url(&quot;#SvgjsClipPath1000&quot;)"><path d=" M 0.17580596229224166 -0.46263336604833083 L 0.09472363847468013 -0.6030689681923376 L 0.2568856909771754 -0.6030689681923376 L 0.17580596229224166 -0.46263336604833083 Z" fill="#bdbfc3" transform="matrix(1,0,0,1,0,0)" fill-rule="nonzero"></path></g><g clip-path="url(&quot;#SvgjsClipPath1000&quot;)"><path d=" M 0.02154608864086882 -0.1875 L -0.03743868085245328 -0.28966258615177143 L 0.08052826300156335 -0.28966258615177143 L 0.02154608864086882 -0.1875 Z" fill="#bdbfc3" transform="matrix(1,0,0,1,0,0)" fill-rule="nonzero"></path></g><g clip-path="url(&quot;#SvgjsClipPath1000&quot;)"><path d=" M -0.37137775224280006 -0.420836159947779 L -0.43035992660349454 -0.5230013412321779 L -0.31239298274947797 -0.5230013412321779 L -0.37137775224280006 -0.420836159947779 Z" fill="#e8a941" transform="matrix(1,0,0,1,0,0)" fill-rule="nonzero"></path></g><g clip-path="url(&quot;#SvgjsClipPath1000&quot;)"><path d=" M -0.1893032470885268 -0.5527026341553629 L -0.27038297577346065 -0.6931382362993697 L -0.1082235184035929 -0.6931382362993697 L -0.1893032470885268 -0.5527026341553629 Z" fill="#e8a941" transform="matrix(1,0,0,1,0,0)" fill-rule="nonzero"></path></g><g clip-path="url(&quot;#SvgjsClipPath1000&quot;)"><path d=" M -0.11135584348513805 -0.4177012397336064 L -0.19243557217007196 -0.5581368418776129 L -0.03027351966757663 -0.5581368418776129 L -0.11135584348513805 -0.4177012397336064 Z" fill="#e8a941" transform="matrix(1,0,0,1,0,0)" fill-rule="nonzero"></path></g><g clip-path="url(&quot;#SvgjsClipPath1000&quot;)"><path d=" M -0.03456327390104319 -0.28466695584359036 L -0.11564300258597693 -0.4251025579875969 L 0.04651645478389077 -0.4251025579875969 L -0.03456327390104319 -0.28466695584359036 Z" fill="#e8a941" transform="matrix(1,0,0,1,0,0)" fill-rule="nonzero"></path></g><g clip-path="url(&quot;#SvgjsClipPath1000&quot;)"><path d=" M -0.43949998371799504 -0.5416292032332808 L -0.5205797124029289 -0.6820648053772875 L -0.35842025503306113 -0.6820648053772875 L -0.43949998371799504 -0.5416292032332808 Z" fill="#e8a941" transform="matrix(1,0,0,1,0,0)" fill-rule="nonzero"></path></g><g clip-path="url(&quot;#SvgjsClipPath1000&quot;)"><path d=" M 0.294476187088345 -0.46263336604833083 L 0.21339645840341104 -0.6030689681923376 L 0.37555851090590653 -0.6030689681923376 L 0.294476187088345 -0.46263336604833083 Z" fill="#e8a941" transform="matrix(1,0,0,1,0,0)" fill-rule="nonzero"></path></g><g clip-path="url(&quot;#SvgjsClipPath1000&quot;)"><path d=" M 0.12250193812079391 -0.3703193082184022 L 0.0635171686274717 -0.4724818943701734 L 0.181486707614116 -0.4724818943701734 L 0.12250193812079391 -0.3703193082184022 Z" fill="#bdbfc3" transform="matrix(1,0,0,1,0,0)" fill-rule="nonzero"></path></g><g clip-path="url(&quot;#SvgjsClipPath1000&quot;)"><path d=" M -0.32028478107009006 -0.33234473247834395 L -0.37926955056341216 -0.4345073186301154 L -0.26130260670939565 -0.4345073186301154 L -0.32028478107009006 -0.33234473247834395 Z" fill="#bdbfc3" transform="matrix(1,0,0,1,0,0)" fill-rule="nonzero"></path></g><g clip-path="url(&quot;#SvgjsClipPath1000&quot;)"><path d=" M 0.4149188874691172 -0.5565745720357818 L 0.3559341179757951 -0.658737158187553 L 0.4739036569624393 -0.658737158187553 L 0.4149188874691172 -0.5565745720357818 Z" fill="#bdbfc3" transform="matrix(1,0,0,1,0,0)" fill-rule="nonzero"></path></g></g></g><defs><clipPath id="SvgjsClipPath1003"><path d=" M -0.673614683454062 -1.7601503723416423 h 1.347229366908124 v 1.5726503723416423 h -1.347229366908124 Z"></path></clipPath><clipPath id="SvgjsClipPath1000"><path d=" M -0.673614683454062 -1.7601503723416423 L 0.673614683454062 -1.7601503723416423 L 0.673614683454062 -0.1875 L -0.673614683454062 -0.1875 Z"></path></clipPath></defs></svg>