<svg xmlns="http://www.w3.org/2000/svg" version="1.1" xmlns:xlink="http://www.w3.org/1999/xlink" xmlns:svgjs="http://svgjs.dev/svgjs" viewBox="0 0 3.6166228998194607 3.481628678892334"><g transform="matrix(1,0,0,1,0.8418061595022731,0.9280285270196653)"><g><path d=" M -0.24888132718249756 0.3041815876277658 Q -0.23814705460676017 0.3117878829329569 -0.23222900399746227 0.31350077930629333 Q -0.22631095338816443 0.31521367567962977 -0.22129520391460106 0.3116360236257753 Q -0.21627945444103772 0.30805837157192084 -0.20867315913584664 0.2973240989961835 L -0.19872646527521215 0.2832869733202191 Q -0.1759075793596389 0.25108415559300695 -0.17636579010953163 0.21541050974752765 Q -0.17682400085942435 0.17973686390204832 -0.20057837555475994 0.1511215506094492 Q -0.2014040888298167 0.15053645097058838 -0.20023388955209498 0.1488850244204749 Q -0.19964878991323415 0.1480593111454182 -0.19829813040836552 0.14746599428074292 Q -0.1969474709034969 0.14687267741606763 -0.19653461426596855 0.14716522723549808 Q -0.15829475552553457 0.17984336909686552 -0.13104621744866268 0.19915165717927363 Q -0.12774336434843578 0.20149205573471704 -0.12732229048509303 0.2039609783340728 Q -0.12690121662175025 0.20642990093342858 -0.12924161517719365 0.20973275403365546 L -0.2673251299483548 0.4046010869470422 Q -0.26791022958721566 0.4054268002220989 -0.27038736941238584 0.4036715013055164 Q -0.272864509237556 0.40191620238893383 -0.2722794095986951 0.4010904891138771 Q -0.2629178153769215 0.3878790767129695 -0.2607401261828221 0.3804299063716562 Q -0.2585624369887228 0.37298073603034276 -0.26293983422601663 0.36646805214219563 Q -0.26731723146331055 0.35995536825404845 -0.2797029305891614 0.35117887367113565 L -0.47085555376479293 0.21572830727484837 Q -0.4832412528906438 0.20695181269193558 -0.49063026982290814 0.2051268267263156 Q -0.4980192867551726 0.2033018407606956 -0.504678245553035 0.2078856663167537 Q -0.5113372043508974 0.21246949187281178 -0.5204062487532406 0.225268047636191 Q -0.5209913483921014 0.22609376091124772 -0.5234684882172715 0.22433846199466517 Q -0.5259456280424417 0.22258316307808262 -0.5253605284035809 0.2217574498030259 L -0.5100276309751008 0.20099431110850985 Q -0.49574462600624447 0.18258800542106607 -0.4869681314233317 0.1702023062952152 Q -0.4781916368404189 0.15781660716936435 -0.465560058421676 0.13824010220419886 L -0.45105287426825263 0.11689186387082201 Q -0.45017522480996136 0.11565329395823692 -0.4476980849847912 0.11740859287481947 Q -0.445220945159621 0.11916389179140202 -0.4460985946179123 0.12040246170398711 Q -0.45516763902025553 0.13320101746736634 -0.4572851748053059 0.14100289103715913 Q -0.4594027105903563 0.14880476460695186 -0.4548790384433472 0.15511102017633482 Q -0.4503553662963381 0.16141727574571785 -0.43796966717048724 0.17019377032863062 L -0.24888132718249756 0.3041815876277658 M -0.09911896325459524 -0.2249240625567689 Q -0.11879790685187802 -0.22845611350415962 -0.13547148167340675 -0.21370221237019227 Q -0.13622937143802172 -0.21303158050046644 -0.13824126704719908 -0.21530524979431132 Q -0.14025316265637644 -0.21757891908815608 -0.13949527289176147 -0.2182495509578819 L -0.12097060260613998 -0.23396577094899335 Q -0.10590006520873027 -0.2459498867091684 -0.09718433291565845 -0.25366215321101493 Q -0.08998438015181648 -0.2600331559734099 -0.07701299625847333 -0.2728624193930891 L -0.059916847607192514 -0.2886658972790897 Q -0.059158957842577575 -0.28933652914881547 -0.057147062233400214 -0.2870628598549707 Q -0.05513516662422285 -0.28478919056112584 -0.05589305638883779 -0.2841185586914 Q -0.07067190679882918 -0.27104123723174717 -0.06861390022884381 -0.25191699531323186 Q -0.06655589365885844 -0.2327927533947166 -0.04844883317626217 -0.21232972975011316 L 0.044768996715622456 -0.10698305246863615 Q 0.06824111215602507 -0.08045691070711314 0.07426556535222684 -0.04997803796406747 Q 0.08029001854842863 -0.01949916522102174 0.06843613684164901 0.010246114244494703 Q 0.056582255134869364 0.039991393710011175 0.0285403338441165 0.06480477288986534 Q 0.0004984125533636224 0.08961815206971953 -0.030490291914323273 0.09812070365229532 Q -0.06147899638201019 0.1066232552348711 -0.09173410757216785 0.09724747191446545 Q -0.12198921876232552 0.0878716885940598 -0.1461319660724539 0.060587657067921866 L -0.2544390130331688 -0.061811539917391356 Q -0.2644984910790556 -0.07317988638661549 -0.2712771110198272 -0.07664087709717415 Q -0.2780557309605988 -0.08010186780773287 -0.28539466939580305 -0.07732398360491194 Q -0.2927336078310073 -0.07454609940209106 -0.30448089918253896 -0.06415130542134137 Q -0.30561773382946134 -0.06314535761675269 -0.3076296294386387 -0.06541902691059753 Q -0.30964152504781606 -0.06769269620444235 -0.3085046904008937 -0.06869864400903103 L -0.2880852957037348 -0.08609144367445692 Q -0.26998319924786535 -0.10075808691353516 -0.2597516874255636 -0.10981161715483329 Q -0.24838334095633946 -0.11987109520072015 -0.2316225082399216 -0.1360535179690282 L -0.21263163517710343 -0.15353357552934327 Q -0.21149480053018102 -0.15453952333393195 -0.20948290492100366 -0.15226585404008713 Q -0.2074710093118263 -0.14999218474624232 -0.2086078439587487 -0.14898623694165364 Q -0.22035513531028034 -0.13859144296090392 -0.2238379404945613 -0.1314556926115471 Q -0.22732074567884225 -0.12431994226219029 -0.22454286147602137 -0.11698100382698606 Q -0.2217649772732005 -0.10964206539178178 -0.2117054992273137 -0.09827371892255765 L -0.11580514185652589 0.01010451741737911 Q -0.07590254560784146 0.05519895841196819 -0.038979127852205336 0.061038967764938 Q -0.0020557100965692132 0.06687897711790784 0.03053354978187331 0.03804180671969892 Q 0.061985975013393424 0.010210584126078698 0.06286292977126842 -0.024685981369004628 Q 0.06373988452914339 -0.059582546864087954 0.03222018665203133 -0.09520336580099026 L -0.061332959174716206 -0.20092898796477476 Q -0.07944001965731248 -0.22139201160937816 -0.09911896325459524 -0.2249240625567689 M 0.4573101899321279 -0.2160598671518035 Q 0.4587023543947077 -0.2133618726912588 0.45735335716443537 -0.21266579045996892 Q 0.44431305060513593 -0.2059369955574999 0.4368863712999201 -0.20267422273404456 L 0.4096743992840431 -0.1892022438516707 L 0.3730338357336954 -0.16972633045298935 Q 0.3647222140190672 -0.16486814391139587 0.3494335787426472 -0.15697921195677705 Q 0.34808458151237487 -0.15628312972548714 0.34669241704979503 -0.15898112418603183 Q 0.34530025258721525 -0.16167911864657653 0.34664924981748757 -0.16237520087786644 Q 0.3614882193504835 -0.17003210542205532 0.357543753373174 -0.17767642306026532 Q 0.35545550667930437 -0.1817234147510824 0.34839215865289774 -0.1854808227217262 L 0.23759814079264086 -0.24902220509873374 L 0.22746625834105258 -0.17375896136059021 Q 0.22269080192116014 -0.13997827646549507 0.23057973387577899 -0.12468964118907508 Q 0.23962880288254768 -0.10715267719553451 0.26301142154060175 -0.11921810253789275 Q 0.26391075302745004 -0.11968215735875268 0.2653029174900298 -0.11698416289820798 Q 0.2666950819526096 -0.11428616843766327 0.26579575046576137 -0.11382211361680333 Q 0.2509567809327655 -0.10616520907261445 0.24308043588412553 -0.10267040883872915 L 0.2095731434603109 -0.08595004621033578 L 0.18867088092980733 -0.07459509217670325 Q 0.18305725367572379 -0.07112907009768957 0.17001694711642437 -0.06440027519522055 Q 0.16866794988615202 -0.06370419296393065 0.16727578542357224 -0.06640218742447536 Q 0.16588362096099243 -0.06910018188502007 0.16723261819126478 -0.06979626411630996 Q 0.18117225623741243 -0.07698911383963891 0.1937503101473088 -0.10226931684198326 Q 0.20632836405720523 -0.1275495198443276 0.21258412157574927 -0.16949613350823592 L 0.22643024476567392 -0.25521680196462065 L 0.09670890062075357 -0.3300591864084313 Q 0.07459074689981388 -0.34313007329405926 0.059056596221256544 -0.3456482042866563 Q 0.04352244554269924 -0.3481663352792533 0.03093180472682397 -0.34166956778721425 Q 0.029582807496551622 -0.3409734855559243 0.02819064303397184 -0.343671480016469 Q 0.026798478571392004 -0.3463694744770138 0.02814747580166438 -0.3470655567083037 L 0.04771513017933138 -0.35659306961336806 Q 0.06076982581606659 -0.36219050561855887 0.06706514622400422 -0.3654388893645784 Q 0.08280344724384833 -0.3735598487296272 0.10572201108104251 -0.3865246055588337 L 0.13112093104578723 -0.4001998336967659 Q 0.1320202625326355 -0.40066388851762585 0.13341242699521527 -0.3979658940570811 Q 0.13480459145779505 -0.3952678995965364 0.13390525997094682 -0.3948038447756765 Q 0.11861662469452684 -0.3869149128210576 0.12256109067183628 -0.3792705951828476 Q 0.12441730995527599 -0.3756732692354547 0.13194471280254255 -0.3710165297779626 L 0.23840215525180913 -0.31036200203962233 L 0.2479242899367224 -0.380186089624369 Q 0.2524677189461849 -0.41441644026288826 0.24457878699156604 -0.42970507553930826 Q 0.23552971798479735 -0.4472420395328488 0.21214709932674325 -0.4351766141904906 Q 0.21124776783989502 -0.43471255936963066 0.20985560337731524 -0.43741055383017535 Q 0.20846343891473543 -0.4401085482907201 0.20936277040158366 -0.44057260311158003 L 0.23207808498321947 -0.4517243078896542 Q 0.2505287695410441 -0.4601060728200046 0.2658174048174641 -0.4679950047746234 Q 0.27526038542937054 -0.47286758039365273 0.2864876399375377 -0.47979962455168007 L 0.30514157375092066 -0.4899944415331628 Q 0.30649057098119303 -0.4906905237644527 0.3078827354437728 -0.48799252930390796 Q 0.3092748999063526 -0.48529453484336327 0.3079259026760802 -0.48459845261207335 Q 0.29353659888650846 -0.4771735754783144 0.2812993915535391 -0.4517845533094731 Q 0.26906218422056977 -0.4263955311406316 0.2623567609586016 -0.38421689006629334 L 0.24980207868920606 -0.3037177394303113 L 0.38818218457867115 -0.2242330046064444 Q 0.4080088423501828 -0.2133960573605012 0.4236446176565193 -0.21178445239347035 Q 0.43928039296285576 -0.2101728474264395 0.45456902823927575 -0.21806177938105833 Q 0.45591802546954807 -0.21875786161234823 0.4573101899321279 -0.2160598671518035 M 0.6737844695127321 -0.5692280651668429 Q 0.6581585630175515 -0.5817007253163008 0.6364724553181663 -0.5766610399242683 Q 0.6354867231500124 -0.5764319633155396 0.6347994933238261 -0.5793891598200012 Q 0.6341122634976399 -0.5823463563244627 0.6350979956657938 -0.5825754329331916 L 0.6588701060058512 -0.5875804054586046 Q 0.6778280938095035 -0.5909471288562969 0.6891640137432731 -0.5935815098566776 Q 0.6985284693407348 -0.5957577376396006 0.7160425717587758 -0.6008668487648721 L 0.7385998733219505 -0.6066284768497101 Q 0.7395856054901044 -0.6068575534584388 0.7402728353162906 -0.6039003569539774 Q 0.7409600651424769 -0.6009431604495157 0.739974332974323 -0.600714083840787 Q 0.7207525556953225 -0.5962470899705763 0.7134601892809255 -0.578448398668175 Q 0.7061678228665285 -0.5606497073657738 0.7123528913022048 -0.5340349388256191 L 0.7441945399155008 -0.3970181674522308 Q 0.752212221221007 -0.36251754156684524 0.7430039027459339 -0.33284495167547196 Q 0.7337955842708606 -0.3031723617840987 0.7092129921948984 -0.28265426419131884 Q 0.6846304001189361 -0.262136166598539 0.6481583098972428 -0.2536603320755753 Q 0.6116862196755495 -0.2451844975526116 0.5803857803609616 -0.2524560645579965 Q 0.5490853410463737 -0.2597276315633814 0.5269393940303793 -0.2823734721696553 Q 0.5047934470143848 -0.30501931277592925 0.4965466891001498 -0.3405056708294687 L 0.4595508167904569 -0.49970141598631923 Q 0.45611466765952563 -0.5144873985086273 0.45180036793600126 -0.5207575630117005 Q 0.44748606821247683 -0.5270277275147734 0.43970954931935724 -0.5280776855639132 Q 0.43193303042623754 -0.529127643613053 0.41665418181985253 -0.5255769561777573 Q 0.41517558356762174 -0.5252333412646641 0.4144883537414355 -0.5281905377691258 Q 0.41380112391524926 -0.5311477342735874 0.41527972216748005 -0.5314913491866806 L 0.44151616292792206 -0.5370690132339155 Q 0.4644170794041899 -0.5413520430665228 0.4777244636742672 -0.5444445772843609 Q 0.4925104461965753 -0.5478807264152922 0.5149532094553857 -0.5541352205842073 L 0.539974841438945 -0.5604695401908673 Q 0.5414534396911759 -0.5608131551039603 0.5421406695173621 -0.5578559585994989 Q 0.5428278993435484 -0.5548987620950372 0.5413493010913175 -0.5545551471819441 Q 0.5260704524849324 -0.5510044597466485 0.5196111240920032 -0.5463864578289034 Q 0.5131517956990739 -0.5417684559111583 0.5121018376499341 -0.5339919370180386 Q 0.5110518796007943 -0.526215418124919 0.5144880287317256 -0.511429435602611 L 0.5472459837799367 -0.37046973555660706 Q 0.5608760419992972 -0.3118186715514516 0.5905694312996825 -0.2891086050641918 Q 0.620262820600068 -0.26639853857693196 0.6626493038306845 -0.2762488327522682 Q 0.7035571888090703 -0.28575551201451127 0.7209377103902854 -0.3160285495655222 Q 0.7383182319715005 -0.346301587116533 0.7275516313612493 -0.3926309990197651 L 0.6955954444435889 -0.5301406364772304 Q 0.6894103760079127 -0.5567554050173851 0.6737844695127321 -0.5692280651668429 M 1.1907853465919802 -0.29425611797653295 Q 1.1906981056091959 -0.2912213716920929 1.1896865235143825 -0.29125045201968763 L 1.0996557170759937 -0.2938386011756232 Q 1.0885283140330468 -0.29415848477916584 1.0593804147019308 -0.33675865601806027 Q 1.0302325153708147 -0.37935882725695474 0.9893922205832609 -0.4554518161959214 Q 0.9853313520402102 -0.4550623464588939 0.9777444863291099 -0.45528044891585473 Q 0.9580186354802495 -0.45584751530395295 0.94994051888554 -0.4565859489721179 L 0.9465672008845454 -0.3392424259737684 Q 0.9461164558068262 -0.3235629035041614 0.9484418487506961 -0.31640912802148097 Q 0.9507672416945661 -0.3092553525388005 0.9580285110629759 -0.30651556492670495 Q 0.9652897804313858 -0.30377577731460936 0.9814750939483995 -0.30331049207309285 Q 0.9824866760432129 -0.30328141174549805 0.9823994350604286 -0.300246665461058 Q 0.9823121940776443 -0.29721191917661793 0.9813006119828308 -0.29724099950421273 Q 0.9646095074184105 -0.2977208249095266 0.955014017681481 -0.29850287906908374 L 0.9165884382423708 -0.3001137225650921 L 0.8796511516178858 -0.300669363474895 Q 0.8695207905059549 -0.3004543757034361 0.8523238948941277 -0.3009487412725474 Q 0.8508065217519077 -0.30099236176393956 0.8508937627346921 -0.3040271080483796 Q 0.8509810037174764 -0.3070618543328197 0.8524983768596964 -0.3070182338414275 Q 0.8686836903767102 -0.306552948599911 0.8760903613830939 -0.30887107146188225 Q 0.8834970323894777 -0.3111891943238535 0.8864897155252767 -0.31844319361036466 Q 0.8894823986610756 -0.3256971928968759 0.8899186035749973 -0.34087092431907623 L 0.8966506994131893 -0.5750521792683685 Q 0.897086904327111 -0.5902259106905688 0.8947615113832411 -0.5973796861732493 Q 0.8924361184393712 -0.6045334616559297 0.8849292236291566 -0.6075334148736273 Q 0.8774223288189421 -0.610533368091325 0.8617428063493351 -0.6109841131690441 Q 0.8607312242545218 -0.6110131934966389 0.8608184652373061 -0.614047939781079 Q 0.8609057062200904 -0.617082686065519 0.8619172883149038 -0.6170536057379242 L 0.8887096736636604 -0.6157771860092558 Q 0.9119469815167728 -0.6140967563797626 0.9256033397967531 -0.6137041719572329 Q 0.9402712801715468 -0.6132825072071086 0.9580175873221727 -0.6142909746164199 Q 0.9635958290074436 -0.6146368238620553 0.9724617125008579 -0.6148881620430077 Q 0.9813275959942721 -0.61513950022396 0.9934665811320325 -0.6147905362928227 Q 1.0399993574934467 -0.6134528412234627 1.0650547099002714 -0.5957745628635707 Q 1.0901100623070963 -0.5780962845036787 1.0892376524792529 -0.547748821659278 Q 1.0885688049445728 -0.5244824334785707 1.0737959687376954 -0.5036463340738172 Q 1.059023132530818 -0.4828102346690636 1.0358844911387852 -0.4703139748073726 Q 1.0745157142928483 -0.40542108973033975 1.1010489747468974 -0.3687174864375078 Q 1.1275822352009468 -0.3320138831446758 1.1486057993923153 -0.3149577171425696 Q 1.169629363583684 -0.29790155114046346 1.1898610054799512 -0.2973199445885678 Q 1.1908725875747646 -0.297290864260973 1.1907853465919802 -0.29425611797653295 M 0.9796399037300622 -0.46838739565703624 Q 0.9978483814367026 -0.46786394976033013 1.0086299352340142 -0.4731223078420584 Q 1.0194114890313257 -0.4783806659237867 1.0246090884042187 -0.49189889264769177 Q 1.0298066877771117 -0.5054171193715968 1.0305191558031839 -0.5302008806945242 Q 1.03171144923457 -0.5716757465818718 1.0200232091745287 -0.5877042329826162 Q 1.0083349691144876 -0.6037327193833606 0.985574371981187 -0.6043870267542433 Q 0.96837747636936 -0.6048813923233545 0.9610782992487056 -0.5974980889054178 Q 0.9537791221280512 -0.5901147854874811 0.9532702163951425 -0.5724120988282473 L 0.9503621836356644 -0.4712538893469116 Q 0.9624430081182351 -0.4688817612261475 0.9796399037300622 -0.46838739565703624 M 1.314907064233431 -0.27311662372483886 Q 1.315816958574358 -0.26564962645094425 1.322417797752346 -0.2615677897140892 Q 1.3290186369303338 -0.25748595297723414 1.344814102420167 -0.25392447379584127 Q 1.3462949273098386 -0.2535905851225857 1.3456271499633274 -0.250628935343242 Q 1.3449593726168163 -0.24766728556389833 1.3434785477271445 -0.2480011742371539 Q 1.3271894739407544 -0.2516739496429653 1.3179222125305845 -0.25428218620347465 L 1.2805192782166497 -0.26323430755584 L 1.2438809680469922 -0.27097661986625377 Q 1.233897505891428 -0.27270893605806706 1.2171148238084806 -0.276493007688297 Q 1.216127607215366 -0.27671560013713403 1.216795384561877 -0.27967724991647774 Q 1.2174631619083884 -0.2826388996958214 1.2184503785015028 -0.28241630724698435 Q 1.234245843991336 -0.2788548280655915 1.2422064495617877 -0.2796534261821 Q 1.2501670551322397 -0.28045202429860844 1.2544956960173732 -0.2869972153643871 Q 1.258824336902507 -0.2935424064301658 1.2621632236350628 -0.3083506553268842 L 1.313693375540841 -0.5368912966329054 Q 1.317032262273397 -0.5516995455296239 1.3158755637841912 -0.5592221909157276 Q 1.3147188652949857 -0.5667448363018315 1.3079268700809283 -0.5711291252991744 Q 1.301134874866871 -0.5755134142965175 1.285339409377038 -0.5790748934779103 Q 1.2843521927839234 -0.5792974859267473 1.2850199701304346 -0.5822591357060911 Q 1.2856877474769457 -0.5852207854854348 1.2866749640700603 -0.5849981930365977 L 1.313218515859735 -0.5784945886214399 Q 1.335701905052533 -0.572387745705073 1.3495229373561368 -0.5692714514213543 Q 1.3648247945494125 -0.56582126846438 1.3877533686398844 -0.5616888587342422 L 1.4130386879887242 -0.5565063595854546 Q 1.414519512878396 -0.556172470912199 1.413851735531885 -0.5532108211328554 Q 1.4131839581853738 -0.5502491713535116 1.411703133295702 -0.5505830600267672 Q 1.3964012761024263 -0.5540332429837416 1.3883293743075558 -0.5527410365706757 Q 1.3802574725126855 -0.55144883015761 1.3761756357758304 -0.5448479909796221 Q 1.3720937990389754 -0.5382471518016342 1.3687549123064195 -0.5234389029049158 L 1.3174473528494783 -0.29588547819200917 Q 1.313997169892504 -0.2805836209987334 1.314907064233431 -0.27311662372483886 M 1.715538182621246 -0.10230122215393 Q 1.7143058029691562 -0.09952659850501552 1.7119936165950609 -0.10055358154842353 Q 1.7027448710986792 -0.10466151372205557 1.683733298773641 -0.114213045836321 Q 1.6637968518989648 -0.1241753711679496 1.6550105436774023 -0.12807790673290004 Q 1.6434496118069253 -0.13321282194994008 1.6263910766960752 -0.13968222531283958 Q 1.6102574161348633 -0.14574083545837588 1.6010086706384818 -0.1498487676320079 Q 1.5991589215392055 -0.15067035406673432 1.6003913011912951 -0.1534449777156488 Q 1.6016236808433846 -0.15621960136456328 1.603473429942661 -0.15539801492983688 Q 1.615496799087957 -0.15005770310411523 1.6219445090961253 -0.15023904711578173 Q 1.6283922191042934 -0.15042039112744826 1.631267771625836 -0.15689451297491538 Q 1.6347595139734232 -0.16475594664683973 1.6337266328243056 -0.18736136981323495 L 1.6277394610228497 -0.30352225845403286 L 1.5454256261050534 -0.34008285479935796 L 1.4803453120298873 -0.28206336186915615 Q 1.468377125805473 -0.27132283681226366 1.4632422105884328 -0.25976190494178664 Q 1.455847932675895 -0.2431141630482998 1.4635321510101496 -0.22862780403053737 Q 1.4712163693444043 -0.21414144501277493 1.4911011721616245 -0.20530939083946606 Q 1.49341335853572 -0.20428240779605805 1.4921809788836304 -0.20150778414714357 Q 1.4909485992315408 -0.1987331604982291 1.4886364128574454 -0.1997601435416371 Q 1.480312541910702 -0.20345728249790593 1.4650004677842163 -0.21136564174271855 Q 1.4478386445584546 -0.22009558742225754 1.4348904008635204 -0.2258466924653424 Q 1.4224045944434052 -0.23139240089974564 1.4044211847829169 -0.23827259748000834 Q 1.388287524221705 -0.24433120762554464 1.3785763414505043 -0.24864453640785827 Q 1.3767265923512282 -0.24946612284258468 1.3779589720033176 -0.25224074649149913 Q 1.3791913516554073 -0.25501537014041364 1.3810411007546837 -0.25419378370568724 Q 1.3939893444496179 -0.2484426786626024 1.4051377136710188 -0.24985817175807137 Q 1.4162860828924198 -0.25127366485354036 1.4311315910700895 -0.2610130288957528 Q 1.4459770992477592 -0.2707523929379652 1.4699134716965883 -0.2922334430517502 L 1.6682365426734524 -0.4682449590565437 Q 1.6697776070491355 -0.4692214776636377 1.673014667972869 -0.4677837014028665 Q 1.6767141661714215 -0.4661405285334137 1.676560413620196 -0.46454782010027484 L 1.6911146008536178 -0.1856795287188872 Q 1.6927167462558919 -0.14565760090287652 1.6978070951423274 -0.12844767248308453 Q 1.7028974440287632 -0.11123774406329254 1.7144583758992402 -0.1061028288462525 Q 1.7167705622733354 -0.10507584580284449 1.715538182621246 -0.10230122215393 M 1.5571884157207863 -0.35036094258143136 L 1.6270164442184674 -0.3193460546705095 L 1.622474126404634 -0.40884287278645226 L 1.5571884157207863 -0.35036094258143136 M 2.206269081788661 -0.10480763693730921 Q 2.204350791198846 -0.10245445670345008 2.2035663977875593 -0.10309388690005522 Q 2.1878785295618317 -0.11588249083215857 2.168786979735507 -0.11088174186535757 Q 2.1496954299091824 -0.10588099289855654 2.1327505296991456 -0.08509456749946756 L 1.9690563993682226 0.11571014578984476 Q 1.968097254073315 0.11688673590677431 1.966012653799618 0.11584021467005587 Q 1.9639280535259211 0.11479369343333745 1.9637830903112399 0.11336986982544589 L 1.950570697858164 -0.24600955209192812 L 1.8262015246184593 -0.09344503359672796 Q 1.8092566244084223 -0.07265860819763897 1.8079737838851924 -0.05346677816004332 Q 1.8066909433619625 -0.03427494812244765 1.8219866148820467 -0.0218060592886469 Q 1.8227710082933333 -0.02116662909204174 1.8208527177035176 -0.018813448858182605 Q 1.8189344271137022 -0.016460268624323482 1.818150033702416 -0.01709969882092864 Q 1.8071685259444066 -0.02605172157340098 1.8016052904580613 -0.031239644753582915 L 1.7807463834516317 -0.0488964567675656 L 1.7561104726034515 -0.06832659615668257 Q 1.7491234135092146 -0.07336955612218331 1.7365731189286326 -0.08360043926786596 Q 1.735396528811703 -0.08455958456277372 1.7373148194015187 -0.08691276479663285 Q 1.739233109991334 -0.08926594503049198 1.7404097001082637 -0.08830679973558422 Q 1.7576663551565639 -0.07423933541027056 1.7775785391978454 -0.07824469827849352 Q 1.7974907232391266 -0.08225006114671649 1.8144356234491636 -0.10303648654580545 L 1.9496751100311565 -0.268935693032874 Q 1.948242362283824 -0.2936053726800141 1.943341893528294 -0.3064133330163078 Q 1.9384414247727642 -0.3192212933526015 1.9286365071316842 -0.3272141708101661 Q 1.9278521137203979 -0.3278536010067713 1.9297704043102135 -0.3302067812406304 Q 1.931688694900029 -0.3325599614744895 1.9324730883113153 -0.3319205312778844 L 1.9486256348500266 -0.31810030044353266 Q 1.9534044769250856 -0.3135518074599559 1.9632093945661653 -0.3055589300023913 L 1.99333605929335 -0.2816527792370382 Q 1.9991465282706573 -0.2775689645664452 2.006990462383521 -0.2711746626003936 Q 2.0101280360286666 -0.2686169418139729 2.010417962458029 -0.2657692945981898 Q 2.0107078888873913 -0.2629216473824067 2.01047355966589 -0.25462593922601945 Q 2.0097874564008644 -0.2401702583250822 2.009975112553946 -0.2347946789918186 L 2.0181088484837586 0.03231323057250729 L 2.121376825235493 -0.09436630535024249 Q 2.1386414405438323 -0.11554492745497466 2.1399242810670622 -0.13473675749257033 Q 2.141207121590292 -0.15392858753016597 2.125911450070208 -0.1663974763639667 Q 2.1251270566589215 -0.16703690656057188 2.127045347248737 -0.16939008679443102 Q 2.1289636378385524 -0.17174326702829015 2.129748031249839 -0.17110383683168498 L 2.1462927744941935 -0.1569638908990307 Q 2.1582036388781702 -0.14594861434206166 2.1668319664023206 -0.13891488217940484 Q 2.1746759005151843 -0.13252058021335317 2.1894344121149443 -0.12179523008574655 L 2.20740297896719 -0.1078002473677735 Q 2.2081873723784766 -0.10716081717116835 2.206269081788661 -0.10480763693730921 M 2.217309910597077 0.04013291552925845 Q 2.215787105178073 0.040624264342070684 2.2144925326215628 0.038435888027098714 Q 2.2131979600650524 0.03624751171212674 2.214421080298312 0.03534845615489453 Q 2.231928090818088 0.024991875702811778 2.2593158950174774 0.008000400130163371 Q 2.286703699216867 -0.008991075442485008 2.299750315038306 -0.018581001386295204 Q 2.301788848760406 -0.020079427315015497 2.3034371172819985 -0.01783704022070559 Q 2.305085385803591 -0.015594653126395658 2.303046852081491 -0.014096227197675337 Q 2.2940773037042512 -0.007503153111305838 2.311159359291663 0.01573613132063334 Q 2.335709165032393 0.051697966897984324 2.370172961392961 0.0985842425062827 Q 2.3878543873518607 0.12263894042706186 2.4084490230998092 0.1489482151872928 L 2.4292353224748258 0.17637258862210772 Q 2.4406233595331006 0.19186544491006718 2.4479063840057216 0.1975018870086966 Q 2.4551894084783425 0.20313832910732602 2.462803435573363 0.20068158504326494 Q 2.4647339477367867 0.19989055104470865 2.4663822162583795 0.20213293813901856 Q 2.4680304847799714 0.2043753252333285 2.4663996578022918 0.20557406597630476 Q 2.45326939991246 0.21334150131536683 2.4253118566306364 0.23169374996900535 Q 2.3973543133488135 0.2500459986226439 2.381046043572014 0.2620334060524066 Q 2.379822923338754 0.2629324616096388 2.3783244974100337 0.2608939278875389 Q 2.376826071481313 0.25885539416543896 2.377749506528829 0.25754863186378674 Q 2.404647648063007 0.22835727139519377 2.4080572651076695 0.20010341522282774 Q 2.4114668821523324 0.1718495590504617 2.3934857710076884 0.14738715438526256 Q 2.3847949006211104 0.135563658797083 2.376851557051292 0.13543650954689396 Q 2.3689082134814736 0.13530936029670493 2.354638477426774 0.1457983417977473 L 2.1666856682491606 0.2839532124257626 Q 2.154046759172141 0.2932434531838287 2.1501369758647257 0.2998852862507656 Q 2.14622719255731 0.3065271193177025 2.149283306992859 0.31495655990156257 Q 2.1523394214284086 0.32338600048542265 2.1634277733009393 0.3384711500289621 Q 2.1643268288581714 0.3396942702622221 2.1618805883916514 0.34149238137668647 Q 2.1594343479251314 0.3432904924911509 2.1585352923678993 0.34206737225789097 Q 2.147746625681113 0.32738992945877143 2.1418609435249074 0.31852840264020765 L 2.1173947798525696 0.2843890576676048 L 2.0927125730628804 0.25166449655533 Q 2.0860114774178347 0.2434023401082544 2.0749231255453044 0.22831719056471492 Q 2.0740240699880723 0.22709407033145496 2.076470310454592 0.22529595921699055 Q 2.078916550921112 0.22349784810252615 2.079815606478344 0.2247209683357861 Q 2.0906042731651304 0.23939841113490556 2.097887297637752 0.245034853233535 Q 2.105170322110373 0.25067129533216437 2.113030023611799 0.24897595397760533 Q 2.1208897251132255 0.24728061262304624 2.133120927445825 0.2382900570507242 L 2.3218891501122783 0.09953581605122078 Q 2.335751179422558 0.08934651973592247 2.337946493683901 0.08208093680721378 Q 2.340141807945244 0.0748153538785051 2.3317506227444103 0.06339956503474549 Q 2.296088085640866 0.014882462448767175 2.217309910597077 0.04013291552925845" fill="#262626" fill-rule="nonzero"></path></g><g clip-path="url(&quot;#SvgjsClipPath1002&quot;)"><g clip-path="url(&quot;#SvgjsClipPath1000&quot;)"><path d=" M 1.9342560678982372 1.0846172787501633 L 1.5161340036616204 0.3604076570451606 L 1.5161340036616204 1.0846172787501633 L 1.9342560678982372 1.0846172787501633 Z" fill="#bdbfc3" transform="matrix(1,0,0,1,0,0)" fill-rule="nonzero"></path></g><g clip-path="url(&quot;#SvgjsClipPath1000&quot;)"><path d=" M 1.5161340036616204 1.0846172787501633 L 1.5161340036616204 0.3604076570451606 L 1.098011939425004 1.0846172787501633 L 1.5161340036616204 1.0846172787501633 Z" fill="#e8a941" transform="matrix(1,0,0,1,0,0)" fill-rule="nonzero"></path></g><g clip-path="url(&quot;#SvgjsClipPath1000&quot;)"><path d=" M 0.9060863855942043 1.0829816025231103 L 0.4535517800522108 0.29916853525053366 L 0.4535517800522108 1.0829816025231103 L 0.9060863855942043 1.0829816025231103 Z" fill="#bdbfc3" transform="matrix(1,0,0,1,0,0)" fill-rule="nonzero"></path></g><g clip-path="url(&quot;#SvgjsClipPath1000&quot;)"><path d=" M 0.4535517800522108 1.0829816025231103 L 0.4535517800522108 0.29916853525053366 L 0.0010171745102173974 1.0829816025231103 L 0.4535517800522108 1.0829816025231103 Z" fill="#e8a941" transform="matrix(1,0,0,1,0,0)" fill-rule="nonzero"></path></g><g clip-path="url(&quot;#SvgjsClipPath1000&quot;)"><path d=" M 1.6055559386257874 1.0792817699639679 L 0.9824340884838183 0 L 0.9824340884838183 1.0792817699639679 L 1.6055559386257874 1.0792817699639679 Z" fill="#bdbfc3" transform="matrix(1,0,0,1,0,0)" fill-rule="nonzero"></path></g><g clip-path="url(&quot;#SvgjsClipPath1000&quot;)"><path d=" M 0.9824340884838183 1.0792817699639679 L 0.9824340884838183 0 L 0.3593085124278927 1.0792817699639679 L 0.9824340884838183 1.0792817699639679 Z" fill="#e8a941" transform="matrix(1,0,0,1,0,0)" fill-rule="nonzero"></path></g><g clip-path="url(&quot;#SvgjsClipPath1000&quot;)"><path d=" M 1.758318410856239 1.3894193959034393 L 1.934259793812194 1.0846843452013866 L 1.6789191844359725 0.6424220844384015 L 1.516294217961765 0.9240974536615701 L 1.2278414112511038 0.42448592527489976 L 0.9824452662256888 0.8495232858154119 L 0.7370491212002743 0.42448592527489976 L 0.4535368763963834 0.9155464811306215 L 0.2755946776456052 0.6073388786207935 L 0 1.0846843452013866 L 0.175941382955955 1.3894193959034393 L 0.35187903999795317 1.0846843452013866 L 0.3558843975015565 1.0846843452013866 L 0.5055543611478306 1.343918534662506 L 0.2765969484999952 1.343918534662506 L 0.5348251411927679 1.791188423783484 L 0.6195077136038338 1.6445103690445526 L 0.45493036821624167 1.6445103690445526 L 0.6284759884979484 1.343918534662506 L 0.5580971997671924 1.343918534662506 L 0.6027336489701388 1.2666058200580699 L 0.77272474733702 1.5610424445834166 L 0.950950115548518 1.252350473259199 L 1.088939338940098 1.4913529499346758 L 0.8175325885819813 1.4913529499346758 L 0.9934739715379363 1.796088000636729 L 1.2515903868120037 1.3490118590415066 L 1.4690980658704687 1.7257390192176276 L 1.645035722912467 1.4210039685155746 L 1.4548613486413822 1.4210039685155746 L 1.6157053282442202 1.1424099301347128 L 1.758318410856239 1.3894193959034393 Z" fill="#262626" transform="matrix(1,0,0,1,0,0)" fill-rule="nonzero"></path></g><g clip-path="url(&quot;#SvgjsClipPath1000&quot;)"><path d=" M 1.0661963601475448 1.6701856421211387 L 0.949787630393984 1.468557808346727 L 1.1826088158150627 1.468557808346727 L 1.0661963601475448 1.6701856421211387 Z" fill="#bdbfc3" transform="matrix(1,0,0,1,0,0)" fill-rule="nonzero"></path></g><g clip-path="url(&quot;#SvgjsClipPath1000&quot;)"><path d=" M 1.6419171329305917 1.5910248741941104 L 1.5255046772630738 1.3893970404196985 L 1.758325862684153 1.3893970404196985 L 1.6419171329305917 1.5910248741941104 Z" fill="#bdbfc3" transform="matrix(1,0,0,1,0,0)" fill-rule="nonzero"></path></g><g clip-path="url(&quot;#SvgjsClipPath1000&quot;)"><path d=" M 1.2195400749552636 1.8628861860549615 L 1.1031276192877457 1.6612583522805495 L 1.3359488047088244 1.6612583522805495 L 1.2195400749552636 1.8628861860549615 Z" fill="#bdbfc3" transform="matrix(1,0,0,1,0,0)" fill-rule="nonzero"></path></g><g clip-path="url(&quot;#SvgjsClipPath1000&quot;)"><path d=" M 0.9980642975327634 2.2579038578452115 L 0.9133779992077405 2.11122580310628 L 1.0827468699438294 2.11122580310628 L 0.9980642975327634 2.2579038578452115 Z" fill="#bdbfc3" transform="matrix(1,0,0,1,0,0)" fill-rule="nonzero"></path></g><g clip-path="url(&quot;#SvgjsClipPath1000&quot;)"><path d=" M 0.4339311171554899 1.9228957562438311 L 0.34924854474442396 1.776213975590943 L 0.5186174154805128 1.776213975590943 L 0.4339311171554899 1.9228957562438311 Z" fill="#e8a941" transform="matrix(1,0,0,1,0,0)" fill-rule="nonzero"></path></g><g clip-path="url(&quot;#SvgjsClipPath1000&quot;)"><path d=" M 0.6953412403674041 1.733570890354906 L 0.5789325106138432 1.531943056580494 L 0.8117499701209651 1.531943056580494 L 0.6953412403674041 1.733570890354906 Z" fill="#e8a941" transform="matrix(1,0,0,1,0,0)" fill-rule="nonzero"></path></g><g clip-path="url(&quot;#SvgjsClipPath1000&quot;)"><path d=" M 0.8072527919750588 1.9273966603036938 L 0.6908440622214979 1.725768826529282 L 0.9236652476425766 1.725768826529282 L 0.8072527919750588 1.9273966603036938 Z" fill="#e8a941" transform="matrix(1,0,0,1,0,0)" fill-rule="nonzero"></path></g><g clip-path="url(&quot;#SvgjsClipPath1000&quot;)"><path d=" M 0.9175063118719197 2.118398187473198 L 0.8010975821183588 1.9167703536987857 L 1.0339150416254808 1.9167703536987857 L 0.9175063118719197 2.118398187473198 Z" fill="#e8a941" transform="matrix(1,0,0,1,0,0)" fill-rule="nonzero"></path></g><g clip-path="url(&quot;#SvgjsClipPath1000&quot;)"><path d=" M 0.33612587578843245 1.7494693652087432 L 0.21971714603487147 1.5478415314343312 L 0.4525346055419934 1.5478415314343312 L 0.33612587578843245 1.7494693652087432 Z" fill="#e8a941" transform="matrix(1,0,0,1,0,0)" fill-rule="nonzero"></path></g><g clip-path="url(&quot;#SvgjsClipPath1000&quot;)"><path d=" M 1.389918668373656 1.8628861860549615 L 1.273509938620095 1.6612583522805495 L 1.5063311240411739 1.6612583522805495 L 1.389918668373656 1.8628861860549615 Z" fill="#e8a941" transform="matrix(1,0,0,1,0,0)" fill-rule="nonzero"></path></g><g clip-path="url(&quot;#SvgjsClipPath1000&quot;)"><path d=" M 1.143009802281764 1.995424397327684 L 1.0583235039567411 1.8487463425887527 L 1.227696100606787 1.8487463425887527 L 1.143009802281764 1.995424397327684 Z" fill="#bdbfc3" transform="matrix(1,0,0,1,0,0)" fill-rule="nonzero"></path></g><g clip-path="url(&quot;#SvgjsClipPath1000&quot;)"><path d=" M 0.5072869111377615 2.0499456962581277 L 0.4226006128127386 1.9032676415191965 L 0.5919694835488273 1.9032676415191965 L 0.5072869111377615 2.0499456962581277 Z" fill="#bdbfc3" transform="matrix(1,0,0,1,0,0)" fill-rule="nonzero"></path></g><g clip-path="url(&quot;#SvgjsClipPath1000&quot;)"><path d=" M 1.5628420610245704 1.7280118267313 L 1.4781557626995476 1.5813337719923688 L 1.647528359349593 1.5813337719923688 L 1.5628420610245704 1.7280118267313 Z" fill="#bdbfc3" transform="matrix(1,0,0,1,0,0)" fill-rule="nonzero"></path></g></g></g><defs><clipPath id="SvgjsClipPath1002"><path d=" M 0 0 h 1.934259793812194 v 2.2579038578452115 h -1.934259793812194 Z"></path></clipPath><clipPath id="SvgjsClipPath1000"><path d=" M 0 0 L 1.934259793812194 0 L 1.934259793812194 2.2579038578452115 L 0 2.2579038578452115 Z"></path></clipPath></defs></svg>